<svg xmlns="http://www.w3.org/2000/svg" xmlns:xlink="http://www.w3.org/1999/xlink" xmlns:inkscape="http://www.inkscape.org/namespaces/inkscape" version="1.1" width="200" height="200" viewBox="0 0 200 200">
<path transform="matrix(.32519523,0,0,.32685516,-14.377174,-11.448863)" d="M215.8872 259.08937V153.18067C215.8872 145.24121 209.39405 140.49024 201.45606 142.61573L95.54297 170.99414C87.60498 173.11963 81.11182 181.354 81.11182 189.29492V295.2046C81.11182 303.14308 87.60498 307.89894 95.54297 305.76808L201.45606 277.3911C209.39405 275.26026 215.8872 267.0288 215.8872 259.08937Z" fill="#074ea2"/>
<path transform="matrix(.32519523,0,0,.32685516,-14.377174,-11.448863)" d="M607.8965 287.45265 501.9834 315.8296C494.0459 317.95558 487.54884 326.18898 487.54884 334.13038V440.04054C487.54884 447.97804 494.0459 452.7339 501.9834 450.60499L607.8965 422.22706C615.83596 420.0962 622.3252 411.86378 622.3252 403.92628V298.0161C622.3252 290.0786 615.83596 285.32569 607.8965 287.45265Z" fill="#074ea2"/>
<path transform="matrix(.32519523,0,0,.32685516,-14.377174,-11.448863)" d="M475.88478 313.84718C475.88575 313.84718 475.88575 313.84815 475.88575 313.84815L331.53077 352.52296 465.62794 441.24269C473.77638 446.63233 480.44435 444.3745 480.44435 436.22413V327.49659C480.44435 323.32667 478.6914 318.39308 475.89454 313.8452L475.88478 313.84718Z" fill="#42c8f4"/>
<path transform="matrix(.32519523,0,0,.32685516,-14.377174,-11.448863)" d="M227.40528 279.32374 371.62403 240.68701 237.8081 152.15332C229.6582 146.76026 222.99512 149.01856 222.99512 157.1665V265.896C222.99512 269.99757 224.68555 274.83937 227.40186 279.32667L227.40625 279.32569C227.40625 279.3247 227.40576 279.3247 227.40528 279.32374Z" fill="#42c8f4"/>
<path transform="matrix(.32519523,0,0,.32685516,-14.377174,-11.448863)" d="M475.88478 313.84718 475.89454 313.8452 598.2031 281.07569C607.4883 278.58448 610.62307 270.8003 603.3379 266.65968L513.4756 215.5752C506.18653 211.43408 494.16896 207.85596 484.8838 210.34229L371.62599 240.68604 465.62794 302.88038C469.60743 305.51417 473.21583 309.50733 475.88478 313.84718Z" fill="#42c8f4"/>
<path transform="matrix(.32519523,0,0,.32685516,-14.377174,-11.448863)" d="M227.40625 279.32569 227.40186 279.32667 105.10156 312.09327C95.819828 314.58155 92.68457 322.37355 99.967288 326.50929L189.83008 377.5952C197.1128 381.73487 209.13184 385.31788 218.42237 382.82667L331.53028 352.52296 237.8081 290.51515C233.7627 287.83448 230.08985 283.7544 227.40625 279.32569Z" fill="#42c8f4"/>
<path transform="matrix(.32519523,0,0,.32685516,-14.377174,-11.448863)" d="M475.88478 313.84718C473.21583 309.50733 469.60743 305.51417 465.62794 302.88038L371.62599 240.68604 371.62403 240.68701 227.40528 279.32374C227.40576 279.3247 227.40625 279.3247 227.40625 279.32569 230.08985 283.7544 233.7627 287.83448 237.8081 290.51515L331.53028 352.52296H331.53077L475.88575 313.84815C475.88575 313.84815 475.88575 313.84718 475.88478 313.84718Z" fill="#a1dbe4"/>
<path transform="matrix(.42627994,0,0,.42313115,2.019556,144.91115)" d="M18.550002 25.599999C18.45 25.766667 18.366667 25.933333 18.300002 26.099999 18.233334 26.266667 18.183333 26.433333 18.15 26.599999 18.116669 26.766665 18.1 26.916666 18.1 27.05V38.899999C18.1 39.466669 17.966668 39.983335 17.7 40.45 17.433333 40.916666 16.983334 41.316667 16.35 41.649999 15.716667 41.983335 14.900001 42.25 13.900002 42.45 12.900001 42.649999 11.650001 42.75 10.150001 42.75 8.483334 42.75 7.141667 42.658334 6.125 42.475 5.1083338 42.291666 4.3166668 42.024999 3.7500003 41.675 3.1833337 41.325 2.8000003 40.908334 2.6000002 40.425 2.4 39.941667 2.3000003 39.416666 2.3000003 38.85V11.049996C2.3000003 10.483332 2.4333337 9.966667 2.7 9.499998 2.9666668 9.033333 3.4083336 8.6416649 4.025 8.324997 4.641667 8.008332 5.4500005 7.7583329 6.4500005 7.574998 7.4500005 7.391666 8.683333 7.299997 10.150001 7.299997 13.083333 7.299997 15.141665 7.624997 16.325 8.274998 17.508334 8.924998 18.1 9.85 18.1 11.049996V18.3C18.1 18.633332 18.166668 18.966666 18.300002 19.299998 18.366667 19.433333 18.433335 19.566666 18.5 19.699999H12.200001C12.266666 19.566666 12.349999 19.433333 12.450001 19.299998 12.516667 19.166665 12.575001 19.016665 12.625 18.849997 12.674999 18.68333 12.700001 18.499999 12.700001 18.3V10.999997C12.700001 10.199999 12.458333 9.658332 11.975 9.374999 11.491667 9.091665 10.866667 8.949997 10.1 8.949997 9.333333 8.949997 8.741667 9.0999979 8.325 9.399997 7.908334 9.699999 7.700001 10.233333 7.700001 10.999997V38.95C7.700001 39.716669 7.9000008 40.283334 8.3 40.649999 8.7 41.016668 9.366667 41.2 10.300001 41.2 11.233335 41.2 11.866667 41.024999 12.200001 40.675 12.533334 40.325 12.700001 39.75 12.700001 38.95V27.199999H11.200001C10.933333 27.2 10.683333 27.208333 10.450001 27.224999 10.216667 27.241665 10.016667 27.266665 9.85 27.3 9.650001 27.333333 9.45 27.366665 9.25 27.4V25.399998C9.483333 25.433333 9.716666 25.466666 9.950001 25.499999 10.150001 25.533333 10.358334 25.558333 10.575 25.574999 10.791667 25.591666 11 25.6 11.200001 25.599999H18.550002" fill="#1b1464"/>
<path transform="matrix(.42627994,0,0,.42313115,2.019556,144.91115)" d="M23.8 42.55V37.7H29.2V42.55H23.8" fill="#1b1464"/>
<path transform="matrix(.42627994,0,0,.42313115,2.019556,144.91115)" d="M60.600004 14.149999C60.5 14.283331 60.416669 14.416666 60.35 14.549999 60.216669 14.78333 60.11667 15.083332 60.05 15.449996L55.100004 40.85C55.066667 41.016668 55.05 41.191667 55.05 41.375 55.05 41.558336 55.05 41.733335 55.05 41.899999V42.55H50V41.899999C50 41.733335 50 41.558336 50 41.375 50 41.191667 49.983335 41.016668 49.95 40.85L45.6 15.449996C45.566667 15.28333 45.516668 15.124999 45.45 14.974998 45.383337 14.824997 45.316667 14.6833319 45.25 14.549999 45.15 14.416666 45.066667 14.283331 45 14.149999H51C50.933336 14.283331 50.883337 14.416666 50.85 14.549999 50.75 14.849998 50.716669 15.166666 50.75 15.499999L53.4 35.2H54L57.45 15.499999C57.516668 15.166666 57.516668 14.866667 57.45 14.599998 57.416669 14.466666 57.383337 14.316665 57.35 14.149999H60.600004" fill="#1b1464"/>
<path transform="matrix(.42627994,0,0,.42313115,2.019556,144.91115)" d="M69.8 42.55C69.833339 42.483335 69.86667 42.38333 69.9 42.25 69.933338 42.149999 69.958339 42.05 69.975 41.95 69.99167 41.85 69.98333 41.716669 69.95 41.55L69.25 36.6H65L64.15 41.649999C64.11667 41.75 64.13333 41.933336 64.2 42.2 64.23334 42.333333 64.25 42.45 64.25 42.55H61.600004C61.633337 42.483335 61.683336 42.399999 61.75 42.3 61.783334 42.233335 61.816667 42.13333 61.850004 42 61.883337 41.866666 61.916669 41.716669 61.95 41.55L66.45 15.8499979C66.48334 15.683331 66.5 15.499999 66.5 15.299998 66.5 15.0999979 66.51667 14.916666 66.55 14.749996 66.55 14.549999 66.566669 14.349998 66.6 14.149999H71.05V14.799999C71.05 15.166666 71.083339 15.5166649 71.15 15.8499979L75.25 41.5C75.28333 41.733335 75.36667 41.966669 75.5 42.2 75.566669 42.333333 75.61667 42.45 75.65 42.55H69.8M67.6 22.099999H67.4L65.3 35.2H69.1L67.6 22.099999" fill="#1b1464"/>
<path transform="matrix(.42627994,0,0,.42313115,2.019556,144.91115)" d="M86.55 42.55 81.25 23.849999H80.85V41.2C80.85 41.466669 80.88333 41.766668 80.95 42.1 80.98334 42.233335 81.03333 42.38333 81.1 42.55H78.1C78.13333 42.416666 78.183338 42.283334 78.25 42.149999 78.28333 42.016668 78.316669 41.875 78.35 41.725 78.38333 41.575 78.4 41.416666 78.4 41.25V15.799998C78.4 15.633334 78.38333 15.45 78.35 15.249999 78.316669 15.049998 78.26667 14.866664 78.2 14.699997 78.13333 14.533331 78.066669 14.349998 78 14.149999H83.65L88.65 31.999999H88.9V15.649997C88.9 15.416665 88.88333 15.208332 88.85 15.024998 88.816669 14.841665 88.78333 14.6833319 88.75 14.549999 88.71667 14.416666 88.683338 14.283331 88.65 14.149999H91.5C91.46667 14.283331 91.433338 14.416666 91.4 14.549999 91.333339 14.883335 91.3 15.233334 91.3 15.5999979V41.2C91.3 41.6 91.35 41.916666 91.450008 42.149999 91.48334 42.283334 91.53333 42.416666 91.6 42.55H86.55" fill="#1b1464"/>
<path transform="matrix(.42627994,0,0,.42313115,2.019556,144.91115)" d="M121.950008 39.649999C121.950008 39.983335 121.875 40.316667 121.725 40.649999 121.575008 40.983335 121.26667 41.291666 120.8 41.575 120.333339 41.858335 119.65833 42.091669 118.775 42.274999 117.89167 42.458333 116.71667 42.55 115.25 42.55H107.4C107.433338 42.35 107.48334 42.183336 107.55 42.05 107.583339 41.916666 107.61667 41.783334 107.65 41.649999 107.683338 41.516668 107.700008 41.38333 107.700008 41.25V15.749998C107.700008 15.583332 107.683338 15.408333 107.65 15.2249979 107.61667 15.041666 107.566669 14.866664 107.5 14.699997 107.433338 14.533331 107.36667 14.349998 107.3 14.149999H115.55C117.98334 14.149999 119.65833 14.374997 120.575008 14.824997 121.49167 15.274997 121.950008 16.016665 121.950008 17.049998V39.649999M117 16.799998C117 15.933331 116.36667 15.499999 115.1 15.499999H112.700008V41.2H115.1C115.76667 41.2 116.25 41.091669 116.55 40.875 116.85 40.658334 117 40.366666 117 40V16.799998" fill="#1b1464"/>
<path transform="matrix(.42627994,0,0,.42313115,2.019556,144.91115)" d="M138.45 15.999998C137.98334 15.800001 137.45 15.699999 136.85 15.699999H131.3V26.499999H135.75C136.01667 26.5 136.33335 26.466668 136.7 26.399998 137.06667 26.333333 137.46666 26.266667 137.90001 26.199999L137.45 28.149998C137.08333 28.05 136.73334 27.983334 136.40001 27.949997 136.06667 27.916666 135.75 27.899998 135.45 27.899998H131.3V41.05H136.85C137.21668 41.05 137.56667 41.033334 137.90001 41 138.23334 40.966669 138.53334 40.916666 138.8 40.85L138.35 42.55H126C126.03333 42.416666 126.083339 42.283334 126.15 42.149999 126.183338 42.016668 126.21667 41.875 126.25 41.725 126.28333 41.575 126.3 41.416666 126.3 41.25V15.749998C126.3 15.583332 126.28333 15.408333 126.25 15.2249979 126.21667 15.041666 126.16667 14.866664 126.1 14.699997 126.03333 14.533331 125.96667 14.349998 125.9 14.149999H138.90001L138.45 15.999998" fill="#1b1464"/>
<path transform="matrix(.42627994,0,0,.42313115,2.019556,144.91115)" d="M150.55 42.55 145.25 23.849999H144.85V41.2C144.85 41.466669 144.88333 41.766668 144.95 42.1 144.98334 42.233335 145.03334 42.38333 145.1 42.55H142.1C142.13333 42.416666 142.18334 42.283334 142.25 42.149999 142.28334 42.016668 142.31667 41.875 142.35 41.725 142.38333 41.575 142.40001 41.416666 142.40001 41.25V15.799998C142.40001 15.633334 142.38333 15.45 142.35 15.249999 142.31667 15.049998 142.26667 14.866664 142.2 14.699997 142.13333 14.533331 142.06667 14.349998 142 14.149999H147.65001L152.65001 31.999999H152.90001V15.649997C152.90001 15.416665 152.88333 15.208332 152.85 15.024998 152.81667 14.841665 152.78334 14.6833319 152.75 14.549999 152.71668 14.416666 152.68334 14.283331 152.65001 14.149999H155.5C155.46668 14.283331 155.43334 14.416666 155.40001 14.549999 155.33333 14.883335 155.3 15.233334 155.3 15.5999979V41.2C155.3 41.6 155.35 41.916666 155.45 42.149999 155.48334 42.283334 155.53334 42.416666 155.6 42.55H150.55" fill="#1b1464"/>
<path transform="matrix(.42627994,0,0,.42313115,2.019556,144.91115)" d="M187.65001 39.1C187.65001 40.2 187.06667 41.05 185.90001 41.649999 184.73334 42.25 182.85 42.55 180.25 42.55H171.55C171.61667 42.283334 171.68334 42.016668 171.75 41.75 171.81667 41.483335 171.85 41.066667 171.85 40.5V9.799997C171.85 9.433333 171.83335 9.116666 171.8 8.8499979 171.76667 8.583333 171.71668 8.349998 171.65001 8.149998 171.58335 7.9166667 171.51667 7.7166635 171.45 7.549997H180.6C181.63333 7.549997 182.575 7.599999 183.425 7.699998 184.27501 7.7999999 185.01667 7.975002 185.65001 8.224998 186.28334 8.475001 186.77501 8.799998 187.125 9.199996 187.475 9.5999979 187.65001 10.116665 187.65001 10.749997V21.649998C187.65001 22.616665 187.3 23.258332 186.6 23.574997 185.90001 23.891665 184.95 24.1 183.75 24.199999 185.01667 24.333333 185.98334 24.574999 186.65001 24.924998 187.31667 25.275 187.65001 25.85 187.65001 26.649998V39.1M182.25 11.049996C182.25 10.516666 182.05 10.066666 181.65001 9.699999 181.25 9.333332 180.53334 9.15 179.5 9.149997H177.25V23.349999H179.55C181.35 23.349999 182.25 22.8 182.25 21.699997V11.049996M182.25 26.799998C182.25 26.199999 181.975 25.783333 181.425 25.55 180.875 25.316666 180.23334 25.199999 179.5 25.199999H177.25V40.95H179.40001C180.43334 40.95 181.16667 40.808336 181.6 40.524999 182.03334 40.241666 182.25 39.816667 182.25 39.25V26.799998" fill="#1b1464"/>
<path transform="matrix(.42627994,0,0,.42313115,2.019556,144.91115)" d="M206.3 39.6C206.3 40.066667 206.2 40.483335 206 40.85 205.8 41.216669 205.43334 41.541666 204.90001 41.825 204.36667 42.108335 203.63333 42.325 202.7 42.475 201.76667 42.625 200.56667 42.7 199.1 42.7 197.73334 42.7 196.6 42.616666 195.7 42.45 194.8 42.283334 194.08335 42.066667 193.55 41.8 193.01667 41.533334 192.63333 41.208333 192.40001 40.825 192.16667 40.441667 192.05 40.016668 192.05 39.55V16.949999C192.05 14.983331 194.41667 13.999997 199.15001 13.999997 203.91667 13.999997 206.3 14.983331 206.3 16.949999V39.6M201.35 16.699999C201.35 16.266667 201.11667 15.941667 200.65001 15.7249979 200.18334 15.508331 199.66667 15.399997 199.1 15.399997 198.56667 15.399997 198.09168 15.499999 197.675 15.699999 197.25833 15.9 197.05 16.233332 197.05 16.699999V39.8C197.05 40.3 197.26667 40.675 197.7 40.925 198.13333 41.175 198.6 41.3 199.1 41.3 199.73334 41.3 200.26667 41.183336 200.7 40.95 201.13333 40.716669 201.35 40.35 201.35 39.85V16.699999" fill="#1b1464"/>
<path transform="matrix(.42627994,0,0,.42313115,2.019556,144.91115)" d="M224.75 39.6C224.75 40.066667 224.65001 40.483335 224.45 40.85 224.25 41.216669 223.88335 41.541666 223.35 41.825 222.81667 42.108335 222.08335 42.325 221.15001 42.475 220.21668 42.625 219.01668 42.7 217.55 42.7 216.18334 42.7 215.05 42.616666 214.15001 42.45 213.25 42.283334 212.53334 42.066667 212 41.8 211.46668 41.533334 211.08335 41.208333 210.85 40.825 210.61667 40.441667 210.5 40.016668 210.5 39.55V16.949999C210.5 14.983331 212.86667 13.999997 217.6 13.999997 222.36667 13.999997 224.75 14.983331 224.75 16.949999V39.6M219.8 16.699999C219.8 16.266667 219.56667 15.941667 219.1 15.7249979 218.63333 15.508331 218.11667 15.399997 217.55 15.399997 217.01667 15.399997 216.54167 15.499999 216.125 15.699999 215.70835 15.9 215.5 16.233332 215.5 16.699999V39.8C215.5 40.3 215.71668 40.675 216.15001 40.925 216.58335 41.175 217.05 41.3 217.55 41.3 218.18334 41.3 218.71668 41.183336 219.15001 40.95 219.58335 40.716669 219.8 40.35 219.8 39.85V16.699999" fill="#1b1464"/>
<path transform="matrix(.42627994,0,0,.42313115,2.019556,144.91115)" d="M247.25 14.149999C247.18334 14.25 247.13335 14.366667 247.1 14.499997 247 14.7 246.95 14.966668 246.95001 15.299998V41.45C246.95 41.716669 246.98334 41.983335 247.05 42.25 247.08335 42.38333 247.11667 42.483335 247.15001 42.55H241.75C241.78334 42.483335 241.81667 42.38333 241.85 42.25 241.88335 42.149999 241.91667 42.033334 241.95001 41.899999 241.98334 41.766668 242 41.616666 242 41.45V22.999999H241.70001L237.70001 41.45C237.66667 41.616666 237.65001 41.75833 237.65001 41.875 237.65001 41.991666 237.65001 42.1 237.65001 42.2V42.55H235.15001L232.1 22.999999H231.65001V41.35C231.65001 41.516668 231.65001 41.675 231.65001 41.825 231.65001 41.975 231.66667 42.1 231.70001 42.2 231.73334 42.333333 231.76668 42.45 231.8 42.55H228.8C228.83335 42.416666 228.88333 42.283334 228.95001 42.149999 228.98334 42.016668 229.01668 41.891668 229.05 41.774999 229.08335 41.658334 229.1 41.516668 229.1 41.35V15.399997C229.1 15.233331 229.03334 14.983331 228.90001 14.649998L228.70001 14.149999H234.85L237.65001 31.4H237.95001L241.40001 14.149999H247.25" fill="#1b1464"/>
<path transform="matrix(.42627994,0,0,.42313115,2.019556,144.91115)" d="M279.7 9.449996C279.46669 9.383331 279.15 9.341664 278.75 9.324996 278.35 9.308331 278.01667 9.299998 277.75 9.299998H273.4V40.649999C273.4 40.916666 273.40834 41.166666 273.42503 41.399999 273.44169 41.63333 273.46669 41.833333 273.5 42 273.53334 42.2 273.56669 42.38333 273.6 42.55H268.30003C268.30003 42.38333 268.31669 42.2 268.35 42 268.38334 41.833333 268.40834 41.649999 268.42503 41.45 268.44169 41.25 268.45 41.016668 268.45 40.75V9.299998H264.25C263.91667 9.299998 263.56669 9.308331 263.2 9.324996 262.83335 9.341664 262.48335 9.383331 262.15 9.449996L262.75 7.549997H279.15L279.7 9.449996" fill="#1b1464"/>
<path transform="matrix(.42627994,0,0,.42313115,2.019556,144.91115)" d="M295.15 15.999998C294.68336 15.800001 294.15 15.699999 293.55003 15.699999H288V26.499999H292.45C292.71669 26.5 293.03334 26.466668 293.4 26.399998 293.76667 26.333333 294.16667 26.266667 294.6 26.199999L294.15 28.149998C293.78334 28.05 293.43336 27.983334 293.1 27.949997 292.76667 27.916666 292.45 27.899998 292.15 27.899998H288V41.05H293.55003C293.9167 41.05 294.26667 41.033334 294.6 41 294.93336 40.966669 295.23335 40.916666 295.5 40.85L295.05003 42.55H282.7C282.73335 42.416666 282.78334 42.283334 282.85 42.149999 282.88334 42.016668 282.91667 41.875 282.95 41.725 282.98335 41.575 283 41.416666 283 41.25V15.749998C283 15.583332 282.98335 15.408333 282.95 15.2249979 282.91667 15.041666 282.86668 14.866664 282.80003 14.699997 282.73335 14.533331 282.66667 14.349998 282.6 14.149999H295.6L295.15 15.999998" fill="#1b1464"/>
<path transform="matrix(.42627994,0,0,.42313115,2.019556,144.91115)" d="M307.7 24.149998C307.76667 24.016665 307.85 23.883334 307.95 23.749999 308.01667 23.616665 308.08335 23.483332 308.15 23.349999 308.21669 23.216668 308.25 23.066666 308.25 22.9V16.749999C308.25 16.283333 308.0417 15.941667 307.625 15.7249979 307.20835 15.508331 306.66667 15.399997 306 15.399997 305.46669 15.399997 304.99168 15.499999 304.575 15.699999 304.15834 15.9 303.95 16.249999 303.95 16.749999V39.85C303.95 40.416666 304.18336 40.8 304.65 41 305.11668 41.2 305.61668 41.3 306.15 41.3 306.75 41.3 307.25 41.183336 307.65 40.95 308.05003 40.716669 308.25 40.35 308.25 39.85V29.949999H307.05003C306.88334 29.949999 306.70835 29.958334 306.525 29.974999 306.34169 29.991665 306.16667 30.016665 306 30.05 305.80003 30.083334 305.6 30.116665 305.4 30.149998V28.399998C305.63334 28.433333 305.85 28.466666 306.05003 28.499999 306.21669 28.533333 306.39167 28.550002 306.575 28.55 306.75834 28.550002 306.93336 28.550002 307.1 28.55H313.65C313.58335 28.683333 313.49168 28.866665 313.375 29.099999 313.25834 29.33333 313.2 29.566666 313.2 29.799998V39.6C313.2 40 313.1 40.391668 312.9 40.774999 312.7 41.158334 312.34169 41.491666 311.825 41.774999 311.30836 42.058336 310.58335 42.283334 309.65 42.45 308.71669 42.616666 307.51667 42.7 306.05003 42.7 303.35 42.7 301.49168 42.416666 300.475 41.85 299.45835 41.283334 298.95 40.516668 298.95 39.55V17.049998C298.95 15.0166649 301.31669 13.999997 306.05003 13.999997 308.45 13.999997 310.24168 14.224998 311.42503 14.674999 312.60835 15.124999 313.2 15.916665 313.2 17.049998V22.9C313.2 23.199999 313.28334 23.483334 313.45 23.749999 313.51667 23.883334 313.6 24.016665 313.7 24.149998H307.7" fill="#1b1464"/>
<path transform="matrix(.42627994,0,0,.42313115,2.019556,144.91115)" d="M329.95 15.999998C329.48335 15.800001 328.95 15.699999 328.35 15.699999H322.80003V26.499999H327.25C327.51667 26.5 327.83335 26.466668 328.2 26.399998 328.56669 26.333333 328.96669 26.266667 329.4 26.199999L328.95 28.149998C328.58335 28.05 328.23335 27.983334 327.9 27.949997 327.56669 27.916666 327.25 27.899998 326.95 27.899998H322.80003V41.05H328.35C328.71669 41.05 329.06669 41.033334 329.4 41 329.73335 40.966669 330.03334 40.916666 330.30003 40.85L329.85 42.55H317.5C317.53334 42.416666 317.58335 42.283334 317.65 42.149999 317.68336 42.016668 317.71669 41.875 317.75 41.725 317.78334 41.575 317.80003 41.416666 317.80003 41.25V15.749998C317.80003 15.583332 317.78334 15.408333 317.75 15.2249979 317.71669 15.041666 317.6667 14.866664 317.6 14.699997 317.53334 14.533331 317.46669 14.349998 317.4 14.149999H330.4L329.95 15.999998" fill="#1b1464"/>
<path transform="matrix(.42627994,0,0,.42313115,2.019556,144.91115)" d="M346.1 42.55H333.75C333.78334 42.35 333.83335 42.183336 333.9 42.05 333.93336 41.916666 333.96669 41.783334 334 41.649999 334.03334 41.516668 334.05003 41.38333 334.05003 41.25V15.749998C334.05003 15.549998 334.01667 15.358331 333.95 15.174998 333.88334 14.991667 333.81669 14.816665 333.75 14.649998L333.5 14.149999H339.45C339.38334 14.316665 339.31669 14.483332 339.25 14.649998 339.18336 14.816665 339.13334 14.991667 339.1 15.174998 339.06669 15.358331 339.05003 15.549998 339.05003 15.749998V41.05H344.55003C344.85 41.05 345.1667 41.033334 345.5 41 345.83335 40.966669 346.18336 40.916666 346.55003 40.85L346.1 42.55" fill="#1b1464"/>
<path transform="matrix(.42627994,0,0,.42313115,2.019556,144.91115)" d="M370.05003 14.149999C369.98335 14.283331 369.93336 14.416666 369.9 14.549999 369.83335 14.749999 369.76667 15.066667 369.7 15.499999L365.85 41.3C365.78334 41.6 365.78334 41.88333 365.85 42.149999 365.88334 42.283334 365.9167 42.416666 365.95 42.55H360.9L359.4 25.55H358.75L357.30003 42.55H352.2C352.23335 42.45 352.26667 42.333333 352.30003 42.2 352.33335 42.1 352.35835 41.975 352.375 41.825 352.39167 41.675 352.38334 41.5 352.35 41.3L348.85 15.449996C348.81669 15.28333 348.775 15.116663 348.725 14.949997 348.67503 14.78333 348.61668 14.633332 348.55003 14.499997 348.45 14.366667 348.36668 14.25 348.30003 14.149999H354.1C354.06669 14.283331 354.03334 14.416666 354 14.549999 353.93336 14.883335 353.9167 15.1833319 353.95 15.449996L355.9 32.75H356.35L357.55003 15.449996C357.55003 15.28333 357.55003 15.124999 357.55003 14.974998 357.55003 14.824997 357.53334 14.6833319 357.5 14.549999 357.46669 14.416666 357.45 14.283331 357.45 14.149999H362.4C362.36668 14.283331 362.35 14.416666 362.35 14.549999 362.35 14.6833319 362.35 14.824997 362.35 14.974998 362.35 15.124999 362.36668 15.28333 362.4 15.449996L364.80003 32.75H365.25L367 15.499999C367 15.333332 367 15.174998 367 15.024998 367 14.874999 366.98335 14.733334 366.95 14.599998 366.9167 14.466666 366.88334 14.316665 366.85 14.149999H370.05003" fill="#1b1464"/>
<path transform="matrix(.42627994,0,0,.42313115,2.019556,144.91115)" d="M384.95 15.999998C384.48335 15.800001 383.95 15.699999 383.35 15.699999H377.80003V26.499999H382.25C382.51667 26.5 382.83335 26.466668 383.2 26.399998 383.56669 26.333333 383.96669 26.266667 384.4 26.199999L383.95 28.149998C383.58335 28.05 383.23335 27.983334 382.9 27.949997 382.56669 27.916666 382.25 27.899998 381.95 27.899998H377.80003V41.05H383.35C383.71669 41.05 384.06669 41.033334 384.4 41 384.73335 40.966669 385.03334 40.916666 385.30003 40.85L384.85 42.55H372.5C372.53334 42.416666 372.58335 42.283334 372.65 42.149999 372.68336 42.016668 372.71669 41.875 372.75 41.725 372.78334 41.575 372.80003 41.416666 372.80003 41.25V15.749998C372.80003 15.583332 372.78334 15.408333 372.75 15.2249979 372.71669 15.041666 372.6667 14.866664 372.6 14.699997 372.53334 14.533331 372.46669 14.349998 372.4 14.149999H385.4L384.95 15.999998" fill="#1b1464"/>
<path transform="matrix(.42627994,0,0,.42313115,2.019556,144.91115)" d="M398.7 42.55C398.6 42.38333 398.51667 42.216669 398.45 42.05 398.28334 41.716669 398.2 41.35 398.2 40.95V32.1C398.2 31.699999 398.025 31.425 397.67503 31.274998 397.325 31.125 396.86668 31.05 396.30003 31.05H393.9V41.05C393.9 41.416666 393.96669 41.766668 394.1 42.1 394.1667 42.266668 394.25 42.416666 394.35 42.55H388.6L388.75 42.1C388.78334 41.933336 388.81669 41.766668 388.85 41.6 388.88334 41.433336 388.9 41.233335 388.9 41V16.199999C388.9 15.966664 388.88334 15.7249979 388.85 15.4749979 388.81669 15.2249979 388.76667 14.999999 388.7 14.799999 388.63334 14.566668 388.56669 14.349998 388.5 14.149999H397.15C397.98335 14.149999 398.75834 14.183332 399.475 14.249997 400.19169 14.316665 400.825 14.441665 401.375 14.624996 401.92503 14.8083319 402.35835 15.075 402.67503 15.424998 402.99168 15.775 403.15 16.216668 403.15 16.749999V28.249999C403.15 28.916666 402.875 29.391667 402.325 29.674998 401.775 29.958334 401.01667 30.183333 400.05003 30.349999 401.01667 30.516667 401.775 30.741665 402.325 31.024998 402.875 31.308333 403.15 31.733332 403.15 32.3V41.05C403.15 41.25 403.18336 41.433336 403.25 41.6 403.31669 41.766668 403.38334 41.933336 403.45 42.1 403.55003 42.266668 403.65 42.416666 403.75 42.55H398.7M398.2 16.699999C398.2 16.333334 398.05836 16.041668 397.775 15.824999 397.49168 15.608334 397 15.499999 396.30003 15.499999H393.9V29.699999H396.4C397.06669 29.699999 397.53334 29.574999 397.80003 29.324999 398.06669 29.074999 398.2 28.8 398.2 28.499999V16.699999" fill="#1b1464"/>
<path transform="matrix(.42627994,0,0,.42313115,2.019556,144.91115)" d="M419.4 42.55C419.43336 42.38333 419.46669 42.216669 419.5 42.05 419.5 41.88333 419.49168 41.708333 419.475 41.524999 419.45835 41.341669 419.4 41.149999 419.30003 40.95L413.30003 28.499999H412.85V41.05C412.85 41.483335 412.93336 41.833333 413.1 42.1 413.2 42.266668 413.30003 42.416666 413.4 42.55H407.55003C407.58335 42.416666 407.63334 42.283334 407.7 42.149999 407.73335 42.016668 407.76667 41.866666 407.80003 41.7 407.83335 41.533334 407.85 41.35 407.85 41.149999V15.499999C407.85 15.299998 407.83335 15.124999 407.80003 14.974998 407.76667 14.824997 407.71669 14.6833319 407.65 14.549999 407.58335 14.416666 407.51667 14.283331 407.45 14.149999H413.25C413.18336 14.283331 413.11668 14.416666 413.05003 14.549999 412.9167 14.883335 412.85 15.1833319 412.85 15.449996V25.699999H413.25L418.85 15.449996C418.9167 15.3499979 418.96669 15.225 419 15.074997 419.03337 14.924998 419.08335 14.78333 419.15 14.649998 419.21669 14.516665 419.26667 14.349998 419.30003 14.149999H425.1C424.93336 14.316665 424.78334 14.483332 424.65 14.649998 424.51667 14.816665 424.375 14.991667 424.225 15.174998 424.075 15.358331 423.93336 15.549998 423.80003 15.749998L417.30003 26.799998 424.5 41.05C424.6 41.283334 424.71669 41.491666 424.85 41.675 424.98335 41.858335 425.1 42.016668 425.2 42.149999 425.33335 42.283334 425.46669 42.416666 425.6 42.55H419.4" fill="#1b1464"/>
<path transform="matrix(.42627994,0,0,.42313115,2.019556,144.91115)" d="M440.25 15.999998C439.78334 15.800001 439.25 15.699999 438.65 15.699999H433.1V26.499999H437.55003C437.81669 26.5 438.13334 26.466668 438.5 26.399998 438.86668 26.333333 439.26667 26.266667 439.7 26.199999L439.25 28.149998C438.88334 28.05 438.53334 27.983334 438.2 27.949997 437.86668 27.916666 437.55003 27.899998 437.25 27.899998H433.1V41.05H438.65C439.01667 41.05 439.36668 41.033334 439.7 41 440.03334 40.966669 440.33335 40.916666 440.6 40.85L440.15 42.55H427.80003C427.83335 42.416666 427.88334 42.283334 427.95 42.149999 427.98335 42.016668 428.01667 41.875 428.05003 41.725 428.08335 41.575 428.1 41.416666 428.1 41.25V15.749998C428.1 15.583332 428.08335 15.408333 428.05003 15.2249979 428.01667 15.041666 427.96669 14.866664 427.9 14.699997 427.83335 14.533331 427.76667 14.349998 427.7 14.149999H440.7L440.25 15.999998" fill="#1b1464"/>
<path transform="matrix(.42627994,0,0,.42313115,2.019556,144.91115)" d="M452.35 42.55 447.05003 23.849999H446.65V41.2C446.65 41.466669 446.68336 41.766668 446.75 42.1 446.78334 42.233335 446.83335 42.38333 446.9 42.55H443.9C443.93336 42.416666 443.98335 42.283334 444.05003 42.149999 444.08335 42.016668 444.11668 41.875 444.15 41.725 444.18336 41.575 444.2 41.416666 444.2 41.25V15.799998C444.2 15.633334 444.18336 15.45 444.15 15.249999 444.11668 15.049998 444.06669 14.866664 444 14.699997 443.93336 14.533331 443.86668 14.349998 443.80003 14.149999H449.45L454.45 31.999999H454.7V15.649997C454.7 15.416665 454.68336 15.208332 454.65 15.024998 454.61668 14.841665 454.58335 14.6833319 454.55003 14.549999 454.51667 14.416666 454.48335 14.283331 454.45 14.149999H457.30003C457.26667 14.283331 457.23335 14.416666 457.2 14.549999 457.13334 14.883335 457.1 15.233334 457.1 15.5999979V41.2C457.1 41.6 457.15 41.916666 457.25 42.149999 457.28337 42.283334 457.33335 42.416666 457.4 42.55H452.35" fill="#1b1464"/>
</svg>
