<?xml version="1.0" standalone="no"?>
<!DOCTYPE svg PUBLIC "-//W3C//DTD SVG 20010904//EN"
 "http://www.w3.org/TR/2001/REC-SVG-20010904/DTD/svg10.dtd">
<svg version="1.0" xmlns="http://www.w3.org/2000/svg"
 width="500.000000pt" height="500.000000pt" viewBox="0 0 500.000000 500.000000"
 preserveAspectRatio="xMidYMid meet">

<g transform="translate(0.000000,500.000000) scale(0.100000,-0.100000)"
fill="#000000" stroke="none">
<path d="M385 4988 c-126 -24 -271 -132 -329 -246 -59 -116 -56 -5 -56 -2093
l0 -1917 91 -96 91 -96 -91 -86 -91 -86 0 -184 0 -184 2500 0 2500 0 0 181 0
181 -91 96 -90 97 90 89 91 89 0 1911 c0 2084 2 1988 -57 2099 -65 121 -202
222 -337 246 -77 14 -4147 13 -4221 -1z m2500 -308 c330 -15 623 -48 859 -96
535 -109 826 -259 826 -427 0 -68 -24 -111 -94 -170 -210 -175 -764 -312
-1449 -358 -238 -16 -974 -7 -1182 15 -619 64 -1079 194 -1256 355 -116 104
-119 194 -11 299 270 262 1278 429 2307 382z m1655 -2677 l0 -1278 90 -90 90
-90 -90 -90 c-82 -81 -90 -93 -90 -127 0 -33 -3 -38 -23 -38 -16 0 -242 220
-847 825 l-825 825 -5 -822 -5 -823 -335 0 -335 0 -5 808 -5 807 -810 -810
c-785 -786 -811 -810 -847 -810 -37 0 -38 1 -38 36 0 33 -11 49 -90 134 l-90
98 90 82 90 82 0 1279 0 1279 2040 0 2040 0 0 -1277z"/>
</g>
</svg>
